<?xml version="1.0" standalone="no"?>
<!DOCTYPE svg PUBLIC "-//W3C//DTD SVG 20010904//EN"
 "http://www.w3.org/TR/2001/REC-SVG-20010904/DTD/svg10.dtd">
<svg version="1.0" xmlns="http://www.w3.org/2000/svg"
 width="512.000000pt" height="512.000000pt" viewBox="0 0 512.000000 512.000000"
 preserveAspectRatio="xMidYMid meet">
<metadata>
Created by potrace 1.15, written by Peter Selinger 2001-2017
</metadata>
<g transform="translate(0.000000,512.000000) scale(0.100000,-0.100000)"
fill="#009688" stroke="none">
<path d="M3800 4044 c-542 -59 -1011 -241 -1380 -534 -139 -111 -233 -216
-360 -404 l-75 -111 -93 3 c-105 4 -135 -6 -234 -81 -188 -142 -360 -322 -516
-540 -92 -129 -132 -206 -132 -254 0 -31 2 -33 33 -33 25 0 418 83 588 124 40
9 44 -10 15 -82 -39 -95 -32 -112 100 -251 174 -182 218 -205 315 -161 58 26
79 26 79 -1 0 -11 -27 -140 -60 -285 -33 -145 -60 -284 -60 -309 0 -42 2 -45
28 -45 125 1 559 347 763 610 104 133 114 158 112 265 -2 85 -1 91 25 118 15
16 44 37 64 48 126 64 357 276 472 433 197 266 351 612 430 966 29 130 66 403
66 485 0 64 17 61 -180 39z m-532 -570 c87 -36 145 -124 146 -219 1 -129 -106
-237 -233 -237 -205 1 -312 223 -186 388 55 72 186 105 273 68z"/>
<path d="M1404 1904 c-54 -19 -120 -76 -144 -125 -25 -49 -38 -137 -46 -321
-6 -113 -4 -151 6 -163 16 -19 95 -19 293 0 126 12 155 18 199 42 86 47 130
125 131 234 1 47 -4 74 -16 93 -23 34 -30 33 -45 -8 -32 -86 -167 -167 -294
-174 -93 -5 -95 -3 -80 98 18 125 92 244 168 272 44 15 43 35 -1 54 -43 18
-117 17 -171 -2z"/>
</g>
</svg>
